<svg width="100" height="31" viewBox="0 0 100 31" fill="none" xmlns="http://www.w3.org/2000/svg">
<g clip-path="url(#clip0_2103_9162)">
<g clip-path="url(#clip1_2103_9162)">
<g clip-path="url(#clip2_2103_9162)">
<mask id="mask0_2103_9162" style="mask-type:luminance" maskUnits="userSpaceOnUse" x="1" y="0" width="97" height="30">
<path d="M97.8766 0.200195H1.53857V29.2056H97.8766V0.200195Z" fill="white"/>
</mask>
<g mask="url(#mask0_2103_9162)">
<g opacity="0.4">
<path fill-rule="evenodd" clip-rule="evenodd" d="M61.3085 22.8845C55.732 27.0072 47.6216 29.2041 40.6258 29.2041C31.2943 29.2505 22.2807 25.8161 15.3462 19.5718C14.8397 19.0987 15.2781 18.456 15.9231 18.8287C22.6384 22.6933 30.157 24.9513 37.8903 25.4261C45.6237 25.9009 53.362 24.5796 60.4997 21.5656C61.4435 21.1953 62.2212 22.213 61.3085 22.8845Z" fill="white"/>
<path fill-rule="evenodd" clip-rule="evenodd" d="M63.6389 20.2147C62.9293 19.302 58.9081 19.7751 57.1162 20.0117C56.575 20.0797 56.4735 19.6065 56.9812 19.2685C60.1923 17.0046 65.4296 17.6797 66.0389 18.424C66.6481 19.1682 65.8704 24.4401 62.8623 26.9405C62.3893 27.312 61.9495 27.1089 62.1526 26.6023C62.8276 24.9131 64.3485 21.1609 63.6389 20.2147Z" fill="white"/>
<path fill-rule="evenodd" clip-rule="evenodd" d="M57.2185 3.38468V1.19237C57.2145 1.1203 57.226 1.04824 57.2518 0.980851C57.2777 0.913463 57.3173 0.852265 57.3685 0.801232C57.4195 0.750197 57.4806 0.71045 57.548 0.684608C57.6154 0.658764 57.6875 0.647402 57.7596 0.651226H67.5569C67.7048 0.647475 67.8484 0.702133 67.9564 0.803415C68.0644 0.904695 68.1281 1.04444 68.1338 1.19237V3.0512C68.1338 3.35582 67.8638 3.76084 67.3908 4.43584L62.3218 11.6682C64.2536 11.5641 66.1785 11.9708 67.9031 12.8473C68.0527 12.933 68.1779 13.0557 68.2665 13.2035C68.3553 13.3515 68.4045 13.5196 68.4095 13.692V16.0239C68.4095 16.362 68.0715 16.7335 67.7 16.5304C66.1009 15.7028 64.3255 15.2735 62.5249 15.2794C60.7243 15.2852 58.9518 15.7258 57.358 16.5639C57.2773 16.5927 57.1909 16.6017 57.1061 16.59C57.0213 16.5781 56.9405 16.546 56.8708 16.4962C56.801 16.4464 56.7445 16.3805 56.7057 16.3042C56.6669 16.2277 56.6473 16.1431 56.6485 16.0573V13.8235C56.6152 13.3013 56.745 12.7815 57.0199 12.3362L62.9046 3.9212H57.801C57.6531 3.92495 57.5096 3.8703 57.4016 3.76902C57.2936 3.66774 57.2299 3.528 57.2241 3.38006L57.2185 3.38468ZM21.4965 17H18.5185C18.3851 16.9868 18.2599 16.9299 18.1622 16.8384C18.0643 16.7468 17.9993 16.6256 17.9773 16.4935V1.22237C17.983 1.07444 18.0468 0.934696 18.1547 0.833416C18.2627 0.732135 18.4062 0.677476 18.5542 0.681227H21.3235C21.4605 0.683092 21.592 0.736029 21.692 0.829719C21.7922 0.923408 21.8537 1.0511 21.8646 1.18776V3.1816H21.9327C22.1958 2.3574 22.7141 1.63817 23.4127 1.12783C24.1114 0.617487 24.9542 0.342446 25.8194 0.342446C26.6846 0.342446 27.5273 0.617487 28.226 1.12783C28.9247 1.63817 29.443 2.3574 29.7062 3.1816C30.0026 2.33186 30.5621 1.59865 31.3033 1.08828C32.0447 0.577916 32.9292 0.31693 33.8287 0.343151C34.4966 0.329678 35.158 0.476055 35.7577 0.770103C36.3574 1.06415 36.8782 1.49734 37.2765 2.03354C38.2227 3.31777 38.0196 5.1766 38.0196 6.83237V16.4981C38.0138 16.646 37.9501 16.7858 37.8422 16.8871C37.7341 16.9884 37.5906 17.0431 37.4427 17.0393H34.5026C34.3619 17.0308 34.2291 16.9711 34.1294 16.8714C34.0297 16.7717 33.97 16.6389 33.9615 16.4981V8.38774C34.0068 7.42965 33.984 6.46956 33.8933 5.51468C33.8314 5.1082 33.6123 4.74231 33.2832 4.49584C32.954 4.24938 32.5413 4.14207 32.1338 4.197C31.7458 4.20819 31.3696 4.33253 31.0515 4.55475C30.7333 4.77698 30.4871 5.08737 30.3431 5.44774C30.0981 6.40731 30.007 7.39964 30.0731 8.38774V16.4981C30.0673 16.646 30.0036 16.7858 29.8956 16.8871C29.7876 16.9884 29.6441 17.0431 29.4962 17.0393H26.5226C26.3819 17.0308 26.2491 16.9711 26.1494 16.8714C26.0497 16.7717 25.99 16.6389 25.9815 16.4981V8.38774C25.9815 6.69736 26.2515 4.16354 24.1562 4.16354C22.0273 4.16354 22.0942 6.59697 22.0942 8.38774V16.4981C22.073 16.6426 21.9992 16.7742 21.887 16.8677C21.7747 16.9612 21.632 17.01 21.4862 17.0047L21.4965 17ZM76.5833 0.338538C81.0107 0.338538 83.4108 4.12315 83.4108 8.95661C83.4108 13.6204 80.7742 17.3381 76.5833 17.3381C72.2576 17.3381 69.8912 13.5535 69.8912 8.8216C69.8577 4.05622 72.2564 0.338538 76.5833 0.338538ZM76.5833 3.48161C74.391 3.48161 74.2515 6.48968 74.2515 8.34852C74.2515 10.2074 74.2181 14.195 76.55 14.195C78.8485 14.195 78.9835 10.9839 78.9835 9.02468C79.0249 7.65894 78.877 6.29404 78.5438 4.96892C78.4514 4.52636 78.2017 4.13223 77.8411 3.85962C77.4805 3.587 77.0332 3.45436 76.5823 3.48623L76.5833 3.48161ZM89.1211 17H86.1477C86.0069 16.9916 85.8741 16.9318 85.7744 16.8322C85.6747 16.7325 85.615 16.5997 85.6065 16.4589V1.15431C85.6252 1.0144 85.6939 0.885978 85.8 0.792851C85.9061 0.699724 86.0422 0.64817 86.1835 0.64774H88.9527C89.0785 0.651945 89.1994 0.697211 89.2971 0.776583C89.3948 0.855954 89.464 0.965088 89.4938 1.08737V3.41928H89.5618C90.4065 1.3239 91.5557 0.344277 93.6176 0.344277C94.3037 0.313107 94.9859 0.462008 95.5966 0.77616C96.2074 1.09031 96.7252 1.55879 97.0987 2.13505C97.8765 3.35236 97.8765 5.41313 97.8765 6.90044V16.5327C97.8561 16.6691 97.7857 16.7929 97.6791 16.8804C97.5725 16.9678 97.4373 17.0125 97.2996 17.0058H94.326C94.1977 16.9937 94.0763 16.9415 93.9792 16.8566C93.8821 16.7717 93.8142 16.6584 93.785 16.5327V8.21929C93.785 6.53006 93.9881 4.0966 91.9261 4.0966C91.5528 4.11402 91.1922 4.23774 90.8868 4.4532C90.5813 4.66865 90.3439 4.96686 90.2023 5.31274C89.8407 6.23722 89.6795 7.22789 89.7292 8.21929V16.4658C89.7104 16.6143 89.6385 16.751 89.5267 16.8506C89.4149 16.9501 89.2708 17.0057 89.1211 17.007V17ZM49.4115 9.69967C49.522 10.788 49.3349 11.8858 48.8704 12.8762C48.6818 13.2676 48.3904 13.6003 48.027 13.8385C47.6638 14.0768 47.2425 14.2117 46.8085 14.2285C45.6546 14.2285 44.9831 13.3493 44.9831 12.065C44.9831 9.52661 47.2469 9.057 49.4104 9.057L49.4115 9.69967ZM52.4195 16.9689C52.3233 17.053 52.203 17.1048 52.0757 17.117C51.9484 17.1293 51.8205 17.1012 51.71 17.037C51.0216 16.4799 50.4379 15.8048 49.9861 15.0431C49.3969 15.7636 48.6461 16.335 47.7945 16.7108C46.9431 17.0867 46.0151 17.2565 45.0858 17.2066C44.4758 17.2423 43.8656 17.1458 43.2966 16.9233C42.7276 16.7008 42.2136 16.3578 41.7898 15.9178C41.366 15.478 41.0425 14.9515 40.8413 14.3747C40.6402 13.7978 40.5664 13.1843 40.6249 12.5762C40.5899 11.5368 40.8761 10.5119 41.4445 9.64104C42.013 8.77015 42.8359 8.09562 43.8015 7.70931C45.6154 7.10767 47.5026 6.75519 49.4115 6.66159V6.29006C49.5125 5.54787 49.3828 4.79257 49.0399 4.1266C48.8457 3.87467 48.5942 3.67268 48.3061 3.53742C48.0182 3.40217 47.7021 3.33754 47.3841 3.3489C46.8341 3.3009 46.2855 3.45687 45.843 3.78708C45.4004 4.1173 45.0948 4.59869 44.9841 5.13967C44.916 5.40967 44.7535 5.68082 44.4777 5.68082L41.6045 5.37623C41.5352 5.36648 41.4685 5.34281 41.4085 5.30665C41.3485 5.27049 41.2963 5.22258 41.2552 5.1658C41.2143 5.10901 41.1851 5.04451 41.1695 4.97618C41.154 4.90785 41.1524 4.83709 41.1649 4.76814C41.841 1.25353 44.9842 0.205822 47.8227 0.205822C49.4539 0.136069 51.0543 0.665036 52.3226 1.69313C53.7753 3.04544 53.6404 4.86967 53.6404 6.83005V11.4604C53.6593 12.4893 54.0565 13.4752 54.7561 14.2297C54.9592 14.4997 54.9927 14.8377 54.7561 15.0073C54.1088 15.5173 53.0253 16.4635 52.4195 16.9689ZM10.378 9.69967C10.4885 10.788 10.3014 11.8858 9.83686 12.8762C9.64838 13.2676 9.35686 13.6003 8.9936 13.8385C8.63033 14.0768 8.20905 14.2117 7.77495 14.2285C6.62111 14.2285 5.94957 13.3493 5.94957 12.065C5.94957 9.52661 8.2134 9.057 10.3769 9.057L10.378 9.69967ZM13.3527 16.9689C13.2563 17.053 13.1361 17.1048 13.0088 17.117C12.8815 17.1293 12.7536 17.1012 12.643 17.037C11.9547 16.4799 11.3709 15.8048 10.9192 15.0431C10.3299 15.7636 9.57909 16.335 8.72767 16.7108C7.87624 17.0867 6.94817 17.2565 6.0188 17.2066C5.40897 17.2423 4.79862 17.1458 4.22968 16.9233C3.66074 16.7008 3.1467 16.3578 2.72288 15.9178C2.29906 15.478 1.97549 14.9515 1.77441 14.3747C1.57334 13.7978 1.49952 13.1843 1.55803 12.5762C1.523 11.5368 1.80916 10.5119 2.37757 9.64104C2.94598 8.77015 3.76901 8.09562 4.73456 7.70931C6.54849 7.10767 8.43575 6.75519 10.3446 6.66159V6.29006C10.4456 5.54787 10.3159 4.79257 9.97303 4.1266C9.77876 3.87467 9.52718 3.67268 9.23922 3.53742C8.95125 3.40217 8.63519 3.33754 8.31725 3.3489C7.76716 3.3009 7.21865 3.45687 6.7761 3.78708C6.33354 4.1173 6.02787 4.59869 5.91726 5.13967C5.84918 5.40967 5.68071 5.68082 5.41071 5.68082L2.53765 5.37623C2.46826 5.36648 2.40155 5.34281 2.34153 5.30665C2.28151 5.27049 2.22941 5.22258 2.18835 5.1658C2.1473 5.10901 2.11813 5.04451 2.10261 4.97618C2.08709 4.90785 2.08553 4.83709 2.09802 4.76814C2.77417 1.25353 5.91725 0.205822 8.75571 0.205822C10.3869 0.136069 11.9874 0.665036 13.2558 1.69313C14.7085 3.04544 14.5735 4.86967 14.5735 6.83005V11.4604C14.5925 12.4892 14.9897 13.475 15.6892 14.2297C15.8923 14.4997 15.9258 14.8377 15.6892 15.0073C15.0465 15.5139 13.9654 16.46 13.3573 16.9689H13.3527Z" fill="white"/>
</g>
</g>
</g>
</g>
</g>
<defs>
<clipPath id="clip0_2103_9162">
<rect width="100" height="30" fill="white" transform="translate(0 0.200195)"/>
</clipPath>
<clipPath id="clip1_2103_9162">
<rect width="100" height="30" fill="white" transform="translate(0 0.200195)"/>
</clipPath>
<clipPath id="clip2_2103_9162">
<rect width="96.9231" height="30" fill="white" transform="translate(1.53857 0.200195)"/>
</clipPath>
</defs>
</svg>
