<svg width="100" height="31" viewBox="0 0 100 31" fill="none" xmlns="http://www.w3.org/2000/svg">
<g clip-path="url(#clip0_2103_9183)">
<g opacity="0.4">
<path d="M40.6424 26.9434H38.4932V18.4263H40.6424V26.9434Z" fill="white"/>
<path d="M57.9729 20.8674C57.4181 20.5664 56.7964 20.4095 56.1651 20.4116C55.8584 20.3947 55.5516 20.4414 55.2637 20.5487C54.9759 20.6558 54.7132 20.8212 54.4923 21.0345C54.2713 21.2478 54.0968 21.5046 53.9796 21.7885C53.8625 22.0724 53.8053 22.3774 53.8115 22.6845C53.8051 22.9917 53.8621 23.2968 53.9791 23.5809C54.0961 23.8649 54.2706 24.1218 54.4916 24.3353C54.7126 24.5487 54.9753 24.7143 55.2633 24.8214C55.5513 24.9287 55.8584 24.9752 56.1651 24.9582C56.7959 24.9596 57.4171 24.804 57.9729 24.5058V26.7917C57.3381 26.9863 56.6784 27.0882 56.0144 27.0944C55.4219 27.1218 54.8301 27.0274 54.2755 26.8172C53.7209 26.6068 53.2154 26.285 52.7901 25.8716C52.3647 25.4583 52.0286 24.9624 51.8024 24.4141C51.5762 23.8658 51.4649 23.2769 51.4751 22.6838C51.4654 22.0911 51.5772 21.5025 51.8036 20.9546C52.0301 20.4067 52.3663 19.9112 52.7916 19.4982C53.2169 19.0852 53.7223 18.7639 54.2765 18.5537C54.8308 18.3435 55.4223 18.2489 56.0144 18.276C56.6791 18.2779 57.3395 18.3809 57.9729 18.5823V20.8674ZM35.5394 20.8674C34.9855 20.5658 34.3644 20.4091 33.7336 20.4123C33.4267 20.3949 33.1195 20.4414 32.8313 20.5483C32.543 20.6552 32.28 20.8204 32.0587 21.0338C31.8372 21.2472 31.6624 21.504 31.5449 21.7882C31.4276 22.0724 31.3702 22.3778 31.3765 22.6852C31.3701 22.9927 31.4274 23.2983 31.5447 23.5826C31.6619 23.8669 31.8367 24.1238 32.058 24.3374C32.2794 24.5508 32.5426 24.7162 32.8309 24.8232C33.1193 24.9302 33.4266 24.9764 33.7336 24.9589C34.3639 24.961 34.9846 24.8054 35.5394 24.5065V26.7924C34.904 26.988 34.2435 27.0899 33.5787 27.0951C32.9864 27.1225 32.3948 27.0282 31.8404 26.8178C31.2861 26.6075 30.7809 26.2857 30.3558 25.8723C29.9309 25.4588 29.5952 24.9627 29.3695 24.4144C29.1438 23.8662 29.0329 23.2774 29.0437 22.6845C29.0339 22.0921 29.1455 21.504 29.3716 20.9564C29.5978 20.4087 29.9337 19.9131 30.3587 19.5002C30.7836 19.0874 31.2886 18.7661 31.8426 18.5557C32.3964 18.3454 32.9875 18.2507 33.5794 18.2774C34.2445 18.2782 34.9055 18.3809 35.5394 18.5823V20.8674ZM64.7344 20.4444C64.4402 20.4416 64.1484 20.4978 63.8763 20.6097C63.6042 20.7216 63.3573 20.8869 63.1501 21.0959C62.943 21.3047 62.7799 21.5529 62.6703 21.8259C62.5607 22.0988 62.507 22.3912 62.5123 22.6852C62.5067 22.9795 62.5603 23.2717 62.6697 23.5449C62.7791 23.8182 62.9422 24.0669 63.1494 24.2759C63.3566 24.4851 63.6036 24.6505 63.8759 24.7625C64.1481 24.8745 64.44 24.9309 64.7344 24.9282C65.0288 24.9309 65.3207 24.8745 65.5929 24.7625C65.8651 24.6505 66.1122 24.4851 66.3194 24.2759C66.5267 24.0669 66.69 23.8185 66.7997 23.5453C66.9094 23.2721 66.9632 22.9796 66.958 22.6852C66.9625 22.3908 66.9079 22.0984 66.7975 21.8255C66.6871 21.5525 66.5231 21.3044 66.3151 21.0959C66.1079 20.887 65.861 20.7219 65.5889 20.61C65.3168 20.4982 65.0251 20.4417 64.7309 20.4444H64.7344ZM69.2309 22.6845C69.2363 23.2728 69.1229 23.8563 68.8976 24.3998C68.6722 24.9432 68.3396 25.4357 67.9194 25.8475C67.4993 26.2594 67.0004 26.5824 66.4524 26.7969C65.9046 27.0114 65.319 27.1129 64.7309 27.0958C64.1428 27.113 63.5572 27.0117 63.0093 26.7972C62.4614 26.5828 61.9624 26.26 61.5422 25.8482C61.122 25.4363 60.7892 24.9437 60.5639 24.4002C60.3386 23.8565 60.2253 23.2729 60.2308 22.6845C60.2258 22.0964 60.3394 21.5132 60.565 20.9699C60.7906 20.4267 61.1235 19.9348 61.5437 19.5232C61.9639 19.1117 62.4627 18.7889 63.0105 18.5746C63.5582 18.3603 64.1436 18.2588 64.7316 18.276C65.3194 18.2591 65.9046 18.3609 66.4522 18.5753C66.9999 18.7897 67.4986 19.1124 67.9186 19.5239C68.3387 19.9355 68.6714 20.4272 68.897 20.9703C69.1226 21.5134 69.2356 22.0965 69.2309 22.6845ZM48.7901 20.3631C48.242 20.2121 47.6783 20.1252 47.1101 20.1039C46.2487 20.1039 45.7809 20.3894 45.7809 20.8015C45.7809 21.3208 46.4123 21.5017 46.7659 21.6131L47.3586 21.8018C47.9217 21.9208 48.4284 22.226 48.7968 22.6682C49.1651 23.1103 49.3739 23.6634 49.3894 24.2387C49.3894 26.3815 47.508 27.0958 45.863 27.0958C45.0844 27.0886 44.3081 27.0109 43.5436 26.8632V24.9017C44.2038 25.0937 44.8858 25.2001 45.5729 25.2187C46.6444 25.2187 47.1336 24.906 47.1336 24.4239C47.1336 23.9953 46.7051 23.7432 46.1751 23.576C46.0459 23.5324 45.8494 23.4717 45.7165 23.4274C44.5194 23.0489 43.5215 22.3451 43.5215 20.9358C43.5215 19.3429 44.7144 18.2732 46.6951 18.2732C47.4016 18.2828 48.1045 18.3736 48.7901 18.5439V20.3617V20.3631Z" fill="white"/>
<path d="M26.7632 9.27363C26.7624 8.99127 26.6496 8.72063 26.4495 8.52134C26.2494 8.32205 25.9784 8.21055 25.696 8.21091C25.4138 8.21077 25.143 8.32227 24.943 8.52134C24.743 8.72041 24.63 8.9907 24.6289 9.27291V11.5093C24.6367 11.7875 24.7524 12.0518 24.9516 12.2462C25.1507 12.4406 25.4177 12.5497 25.696 12.5507C25.9746 12.5508 26.2422 12.4419 26.4416 12.2473C26.6411 12.0527 26.7565 11.7878 26.7632 11.5093V9.27363ZM32.6239 6.33943C32.6239 6.0564 32.5114 5.7848 32.3113 5.58468C32.1112 5.38455 31.8398 5.27218 31.5567 5.27218C31.2737 5.27218 31.0023 5.38455 30.8021 5.58468C30.602 5.7848 30.4896 6.0564 30.4896 6.33943V11.5093C30.4896 11.7923 30.602 12.0639 30.8021 12.264C31.0023 12.4641 31.2737 12.5765 31.5567 12.5765C31.8398 12.5765 32.1112 12.4641 32.3113 12.264C32.5114 12.0639 32.6239 11.7923 32.6239 11.5093V6.33943ZM38.4854 2.32365C38.4846 2.04132 38.3719 1.77073 38.1719 1.57135C37.9721 1.37198 37.7012 1.26025 37.4189 1.26025C37.1363 1.26006 36.8651 1.3718 36.6651 1.57135C36.465 1.7709 36.3524 2.04177 36.3518 2.32435V13.6336C36.3586 13.9121 36.4741 14.1768 36.6735 14.3713C36.8729 14.5658 37.1404 14.6745 37.4189 14.6744C37.6974 14.6745 37.9649 14.5658 38.1643 14.3713C38.3636 14.1768 38.4791 13.9121 38.486 13.6336L38.4854 2.32365ZM44.3461 6.33943C44.3461 6.0564 44.2336 5.7848 44.0335 5.58468C43.8334 5.38455 43.5619 5.27218 43.2789 5.27218C42.9959 5.27218 42.7244 5.38455 42.5243 5.58468C42.3241 5.7848 42.2117 6.0564 42.2117 6.33943V11.5093C42.2117 11.7923 42.3241 12.0639 42.5243 12.264C42.7244 12.4641 42.9959 12.5765 43.2789 12.5765C43.5619 12.5765 43.8334 12.4641 44.0335 12.264C44.2336 12.0639 44.3461 11.7923 44.3461 11.5093V6.33943ZM50.2031 9.27363C50.2034 8.99205 50.0917 8.72205 49.8929 8.52277C49.6939 8.32341 49.424 8.21134 49.1424 8.21091C48.8601 8.21034 48.5891 8.32184 48.389 8.52098C48.1889 8.7202 48.0761 8.99063 48.0753 9.27291V11.5093C48.0753 11.7913 48.1874 12.0621 48.3869 12.2616C48.5863 12.4611 48.8568 12.5731 49.1389 12.5731C49.4204 12.5721 49.69 12.4596 49.8886 12.2602C50.0874 12.0608 50.1989 11.7908 50.1989 11.5093L50.2031 9.27363ZM56.0668 6.33943C56.0599 6.06188 55.9448 5.7981 55.7461 5.60421C55.5474 5.41032 55.2808 5.30158 55.0032 5.30148C54.7256 5.30158 54.4589 5.41032 54.2603 5.60421C54.0616 5.7981 53.9465 6.06188 53.9396 6.33943V11.5093C53.9396 11.7913 54.0516 12.0621 54.2511 12.2616C54.4506 12.4611 54.7211 12.5731 55.0032 12.5731C55.2853 12.5731 55.5558 12.4611 55.7552 12.2616C55.9547 12.0621 56.0668 11.7913 56.0668 11.5093V6.33943ZM61.9318 2.32365C61.9316 2.0417 61.8194 1.77135 61.6199 1.57205C61.4205 1.37275 61.1501 1.26095 60.8682 1.26095C60.5862 1.26095 60.3158 1.37275 60.1164 1.57205C59.9169 1.77135 59.8048 2.0417 59.8046 2.32365V13.6336C59.7961 13.8256 59.8399 14.0163 59.931 14.1854C60.0222 14.3546 60.1574 14.4961 60.3224 14.5945C60.4875 14.6928 60.6761 14.7445 60.8682 14.7445C61.0603 14.7445 61.2489 14.6928 61.4139 14.5945C61.579 14.496 61.7144 14.3543 61.8055 14.1851C61.8967 14.0158 61.9404 13.8251 61.9318 13.633V2.32365ZM67.7954 6.33943C67.7949 6.19857 67.7666 6.05918 67.7121 5.92927C67.6577 5.79935 67.5782 5.6814 67.4781 5.58224C67.3779 5.48341 67.2593 5.40534 67.1289 5.3524C66.9984 5.29945 66.8589 5.27257 66.7182 5.27358C66.4361 5.27376 66.1655 5.38615 65.9661 5.58573C65.7666 5.7853 65.6546 6.05588 65.6546 6.33803V11.5086C65.6542 11.6486 65.6815 11.7872 65.7348 11.9166C65.7881 12.0461 65.8664 12.1638 65.9653 12.263C66.1649 12.4629 66.4357 12.5754 66.7182 12.5758C66.8591 12.5771 66.9989 12.5504 67.1295 12.4973C67.2601 12.4443 67.3788 12.3657 67.4789 12.2665C67.5791 12.1673 67.6586 12.0495 67.713 11.9194C67.7673 11.7893 67.7953 11.6496 67.7954 11.5086V6.33803V6.33943ZM73.6481 9.27363C73.6481 8.9912 73.5359 8.72034 73.3362 8.52063C73.1365 8.32091 72.8656 8.20848 72.5832 8.20848C72.3007 8.20848 72.0299 8.32091 71.8301 8.52063C71.6304 8.72034 71.5181 8.9912 71.5181 9.27363V11.5093C71.5179 11.6493 71.5452 11.7882 71.5986 11.9177C71.652 12.0472 71.7304 12.1648 71.8293 12.264C71.9282 12.3632 72.0457 12.4418 72.1751 12.4956C72.3044 12.5493 72.4431 12.5771 72.5832 12.5772C72.7231 12.5771 72.8616 12.5493 72.9909 12.4956C73.1201 12.4418 73.2375 12.3631 73.3363 12.264C73.4351 12.1649 73.5135 12.0474 73.5669 11.9181C73.6203 11.7887 73.6476 11.6499 73.6474 11.51V9.27434L73.6481 9.27363Z" fill="white"/>
<path d="M72.4163 25.8223V25.9558H72.0363V26.9439H71.8799V25.9566H71.4985V25.8223H72.4163ZM72.4957 25.8223H72.7399L73.0755 26.7423H73.0813L73.4063 25.823H73.6463V26.9439H73.4863V26.0246H73.4806L73.1406 26.9439H72.9927L72.6606 26.0246H72.6535V26.9439H72.497L72.4957 25.8223Z" fill="white"/>
</g>
</g>
<defs>
<clipPath id="clip0_2103_9183">
<rect width="100" height="30" fill="white" transform="translate(0 0.200195)"/>
</clipPath>
</defs>
</svg>
