<svg width="100" height="31" viewBox="0 0 100 31" fill="none" xmlns="http://www.w3.org/2000/svg">
<g clip-path="url(#clip0_2103_9191)">
<g clip-path="url(#clip1_2103_9191)">
<mask id="mask0_2103_9191" style="mask-type:luminance" maskUnits="userSpaceOnUse" x="0" y="5" width="100" height="20">
<path d="M99.6033 5.36426H0V24.8257H99.6033V5.36426Z" fill="white"/>
</mask>
<g mask="url(#mask0_2103_9191)">
<g opacity="0.4">
<path fill-rule="evenodd" clip-rule="evenodd" d="M3.03331 7.19617C3.7778 6.54931 4.64295 6.0562 5.57891 5.7453C6.51487 5.43439 7.50311 5.31183 8.48664 5.38467C9.47025 5.45751 10.4296 5.72433 11.3096 6.16972C12.1895 6.61512 12.9725 7.23029 13.6136 7.97977C14.9922 9.37382 15.7974 11.2344 15.8699 13.1936C15.9425 15.1529 15.2771 17.0679 14.0054 18.5601L8.12757 24.4379C6.95216 23.6543 4.99315 22.0871 5.77675 20.5191C7.34397 18.5601 9.30131 16.9945 10.871 15.033C12.0464 13.4658 11.2628 10.3306 8.91197 9.93879C8.38451 9.7544 7.81845 9.70854 7.26811 9.80559C6.71779 9.90265 6.2016 10.1394 5.76898 10.4931C5.33636 10.8468 5.00181 11.3057 4.79736 11.8258C4.59292 12.3459 4.52543 12.9097 4.60134 13.4634C4.60134 15.4224 6.16856 16.5978 7.34397 17.774C6.16856 18.9494 4.60134 19.733 4.60134 21.2986C3.42593 19.7314 1.46692 18.556 0.682494 16.5961C-0.03392 14.9922 -0.191649 13.1944 0.234543 11.4902C0.660735 9.78601 1.64621 8.27404 3.03331 7.19617Z" fill="white"/>
<path fill-rule="evenodd" clip-rule="evenodd" d="M28.1122 7.19639C28.504 6.02098 29.6794 6.41279 30.463 6.41279V20.907H28.1122V19.7349C27.1688 20.4956 25.9934 20.9104 24.7815 20.9104C23.5696 20.9104 22.3942 20.4956 21.4507 19.7349C20.3656 18.7441 19.7156 17.3647 19.6422 15.8971C19.5689 14.4294 20.078 12.9922 21.0589 11.898C21.9411 10.9379 23.1409 10.3297 24.4367 10.1856C25.7325 10.0416 27.0367 10.3715 28.1081 11.1144L28.1122 7.19639ZM24.5876 12.2907C22.6286 12.6825 21.063 15.4251 22.6286 17.3849C22.9213 17.812 23.3212 18.1544 23.7882 18.3779C24.2551 18.6015 24.7726 18.6983 25.2888 18.6587C25.805 18.6189 26.3016 18.4442 26.7288 18.1518C27.1561 17.8595 27.4989 17.4598 27.7229 16.9931C28.8958 15.0333 26.936 12.2898 24.5852 12.2898L24.5876 12.2907Z" fill="white"/>
<path fill-rule="evenodd" clip-rule="evenodd" d="M32.4219 10.3305H34.7727V11.1141C35.5563 9.93872 37.1235 9.93872 38.6915 10.3305C38.2997 11.1141 37.9079 11.5059 37.9079 12.2895C36.3407 11.8977 34.7735 12.6813 34.7735 13.8567V19.7346C34.3809 20.9141 33.2055 20.9141 32.4219 20.9141V10.3305Z" fill="white"/>
<path fill-rule="evenodd" clip-rule="evenodd" d="M42.2184 10.3314C46.1373 8.76415 50.0553 12.6822 49.2676 16.601C48.4799 20.5199 42.9979 22.4789 40.2512 19.7355C37.1168 16.9929 38.2922 11.115 42.2102 10.3314H42.2184ZM43.3938 12.2904C42.7358 12.4659 42.1358 12.8119 41.6542 13.2934C41.1727 13.775 40.8267 14.375 40.6512 15.033C40.5708 15.4801 40.5929 15.9396 40.716 16.3768C40.8392 16.8141 41.06 17.2176 41.3619 17.557C41.6637 17.8965 42.0388 18.1629 42.4586 18.3362C42.8784 18.5096 43.3322 18.5852 43.7856 18.5576C45.3529 18.5576 46.9201 17.3822 46.9201 15.815C46.9201 13.8576 44.9619 11.8986 43.3955 12.2904H43.3938Z" fill="white"/>
<path fill-rule="evenodd" clip-rule="evenodd" d="M50.8389 10.3306H53.1897V11.1142C54.2612 10.3713 55.5653 10.0413 56.8611 10.1854C58.1569 10.3294 59.3568 10.9377 60.2389 11.8978C60.7233 12.4013 61.0993 12.9988 61.3437 13.6534C61.588 14.308 61.6956 15.0057 61.6596 15.7034C61.6236 16.4012 61.445 17.0842 61.1346 17.7102C60.8243 18.3362 60.3889 18.8918 59.8553 19.3429C58.288 21.3019 55.1528 21.3019 53.1938 20.1265V23.6511C52.802 24.8265 51.6266 24.8265 50.843 24.8265V10.3306H50.8389ZM55.9331 12.2896C53.5823 12.6814 52.4085 15.4241 53.5823 16.9921C54.7577 18.9511 57.893 18.9511 58.6766 16.9921C60.243 15.0323 58.284 12.2896 55.9331 12.2896Z" fill="white"/>
<path fill-rule="evenodd" clip-rule="evenodd" d="M65.7291 10.7231C66.7208 10.167 67.8646 9.94306 68.9928 10.0841C70.121 10.2251 71.1744 10.7237 71.9987 11.5067C71.6069 11.8986 71.2151 12.6822 70.4315 13.074C70.0663 12.7781 69.6373 12.5711 69.1783 12.4694C68.7193 12.3678 68.243 12.3742 67.787 12.4882C67.331 12.6022 66.9076 12.8206 66.5505 13.1263C66.1933 13.4319 65.9121 13.8164 65.7291 14.2494C65.5587 14.7134 65.4978 15.2103 65.5507 15.7018C65.6037 16.1932 65.7693 16.6657 66.0346 17.0828C66.3 17.4998 66.6578 17.85 67.0805 18.1062C67.5032 18.3624 67.9792 18.5177 68.4717 18.56C69.2553 18.56 70.0389 18.1682 70.8225 18.1682C71.5224 18.4764 72.0815 19.0355 72.3897 19.7354C69.6471 22.0862 64.9446 21.3026 63.7692 17.7764C62.202 15.4248 63.3774 12.2887 65.7291 10.7231Z" fill="white"/>
<path fill-rule="evenodd" clip-rule="evenodd" d="M72.3908 17.3841C71.217 13.8579 73.958 9.93896 77.4851 9.93896C78.8958 10.0005 80.2442 10.5374 81.3114 11.4622C82.3788 12.387 83.1017 13.6456 83.3632 15.0333V20.9111C82.1878 20.9111 81.4039 20.9111 80.6203 20.1275C77.8777 22.0865 73.5711 20.5193 72.3916 17.3849L72.3908 17.3841ZM77.4851 12.2898C76.9454 12.3913 76.4379 12.6204 76.0048 12.9581C75.5718 13.2957 75.2258 13.732 74.9957 14.2306C74.7656 14.7292 74.6582 15.2756 74.6823 15.8242C74.7064 16.3727 74.8613 16.9075 75.1342 17.3841C76.7015 19.3431 79.8367 18.9513 80.6203 16.9923C80.821 16.4756 80.8943 15.9181 80.8341 15.3671C80.7739 14.8161 80.582 14.2876 80.2745 13.8264C79.967 13.3652 79.553 12.9848 79.0674 12.7173C78.5819 12.4499 78.0392 12.3032 77.4851 12.2898Z" fill="white"/>
<path fill-rule="evenodd" clip-rule="evenodd" d="M84.9302 10.3318H87.281V11.1154C88.4564 9.54818 91.1999 9.93998 92.7671 11.5072C94.7261 9.15638 98.6449 9.93998 99.4285 12.6826C99.8203 15.0334 99.4285 17.7769 99.4285 20.1277C99.4285 20.9113 98.2531 20.9113 97.0777 20.9113C97.0777 18.5605 97.4695 16.2088 97.0777 13.8621C97.0015 13.4507 96.7835 13.0791 96.4613 12.8117C96.1392 12.5442 95.7343 12.3978 95.3154 12.3978C94.8974 12.3978 94.4917 12.5442 94.1703 12.8117C93.8482 13.0791 93.6302 13.4507 93.5531 13.8621V20.9113H91.2023C91.2671 18.4232 91.1367 15.9338 90.8105 13.4662C90.4187 11.899 87.6761 12.2908 87.6761 13.858C87.3507 16.1929 87.2195 18.5506 87.2843 20.9072H84.9302V10.3318Z" fill="white"/>
</g>
</g>
</g>
</g>
<defs>
<clipPath id="clip0_2103_9191">
<rect width="100" height="30" fill="white" transform="translate(0 0.200195)"/>
</clipPath>
<clipPath id="clip1_2103_9191">
<rect width="100" height="19.6721" fill="white" transform="translate(0 5.36426)"/>
</clipPath>
</defs>
</svg>
